# xmcd
# 
# Track frame offsets:
#     150
#     11510
#     23383
#     37274
#     50866
#     61356
#     71992
#     88949
#     105640
#     120457
#     135039
#     147998
#     162890
#     173915
#     188720
#     200008
#     214700
# 
# Disc length: 3069
# 
# Revision: 4
# Processed by: cddbd v1.5.2PL0 Copyright (c) Steve Scherf et al.
# Submitted via: fre:ac v1.0.31
# 
DISCID=f30bfb11
DTITLE=George Jones - 50 Years Of Hits Disc 2
DYEAR=2004
DGENRE=Country
TTITLE0=A Picture Of Me Without You
TTITLE1=Once You've Had The Best
TTITLE2=The Grand Tour
TTITLE3=These Days I Barely Get By
TTITLE4=Her Name Is
TTITLE5=Near You (With Tammy Wynette)
TTITLE6=Bartender's Blues
TTITLE7=Night Life (With Waylon Jennings)
TTITLE8=He Stopped Loving Her Today
TTITLE9=Yesterday's Wine (With Merle Haggard)
TTITLE10=Same Ole Me
TTITLE11=I Always Get Lucky With You
TTITLE12=She's My Rock
TTITLE13=Who's Gonna Fill Their Shoes
TTITLE14=The One I Loved Back Then (The Corvette Song)
TTITLE15=The Right Left Hand
TTITLE16=Radio Lover
EXTD=
EXTT0=
EXTT1=
EXTT2=
EXTT3=
EXTT4=
EXTT5=
EXTT6=
EXTT7=
EXTT8=
EXTT9=
EXTT10=
EXTT11=
EXTT12=
EXTT13=
EXTT14=
EXTT15=
EXTT16=
PLAYORDER=
